<svg xmlns="http://www.w3.org/2000/svg" width="96" height="96" fill="none" stroke="currentColor" stroke-linecap="round" stroke-linejoin="round" stroke-width=".75" aria-hidden="true" preserveAspectRatio="xMidYMid meet" viewBox="0 0 96 96"><title>Flow diagram on a page</title><style>*{vector-effect:non-scaling-stroke}</style><g transform="scale(4)"><path d="M6 2h8l6 6v12a2 2 0 0 1-2 2H6a2 2 0 0 1-2-2V4a2 2 0 0 1 2-2z"/><path d="M14 2v6h6"/><circle cx="9" cy="7.5" r="1.6"/><rect width="6" height="3.5" x="6" y="11.5" rx=".6"/><polygon points="16.25 11.5 18 13.25 16.25 15 14.5 13.25"/><line x1="9" x2="9" y1="9.1" y2="11.5"/><polyline points="8.55 11 9 11.5 9.45 11"/><line x1="12" x2="14.5" y1="13.25" y2="13.25"/><polyline points="14 12.8 14.5 13.25 14 13.7"/><line x1="16.25" x2="16.25" y1="15" y2="16.75"/><polyline points="15.8 16.25 16.25 16.75 16.7 16.25"/></g></svg>